<svg xmlns="http://www.w3.org/2000/svg" viewBox="0 0 64 64">
  <defs>
    <linearGradient id="bg" x1="0%" y1="0%" x2="100%" y2="100%">
      <stop offset="0%" stop-color="#586470" />
      <stop offset="100%" stop-color="#333c45" />
    </linearGradient>
    <linearGradient id="screen" x1="0%" y1="0%" x2="100%" y2="100%">
      <stop offset="0%" stop-color="#fff8ef" />
      <stop offset="100%" stop-color="#f4e3cf" />
    </linearGradient>
  </defs>

  <rect width="64" height="64" rx="14" fill="url(#bg)" />

  <rect x="17" y="10" width="30" height="44" rx="8" fill="#f8efe3" />
  <rect x="20" y="13" width="24" height="10" rx="4" fill="url(#screen)" />
  <rect x="21.5" y="16.2" width="12" height="3" rx="1.5" fill="#b68964" opacity="0.75" />
  <circle cx="39.2" cy="18.1" r="1.5" fill="#d88f89" />

  <g fill="#e9d4bb">
    <rect x="20" y="27" width="7" height="7" rx="2.2" />
    <rect x="28.5" y="27" width="7" height="7" rx="2.2" />
    <rect x="37" y="27" width="7" height="7" rx="2.2" />
    <rect x="20" y="35.5" width="7" height="7" rx="2.2" />
    <rect x="28.5" y="35.5" width="7" height="7" rx="2.2" />
    <rect x="37" y="35.5" width="7" height="7" rx="2.2" />
    <rect x="20" y="44" width="15.5" height="7" rx="2.2" />
  </g>

  <rect x="37" y="44" width="7" height="7" rx="2.2" fill="#f0a15d" />
  <path d="M40.5 45.7v3.6M38.7 47.5h3.6" stroke="#fffaf3" stroke-width="1.8" stroke-linecap="round" />

  <path d="M23.5 30.5h0.01M32 30.5h0.01M40.5 30.5h0.01M23.5 39h0.01M32 39h0.01M40.5 39h0.01M27.8 47.5h0.01" stroke="#8d6646" stroke-width="2.4" stroke-linecap="round" />
</svg>
